<mxfile host="app.diagrams.net" modified="2024-01-29T05:36:21.843Z" agent="Mozilla/5.0 (Windows NT 10.0; Win64; x64) AppleWebKit/537.36 (KHTML, like Gecko) Chrome/120.0.0.0 Safari/537.36 OPR/106.0.0.0" etag="iu772cDZ2UZl83U9IYG9" version="23.0.2" type="device">
  <diagram name="PÃ¡gina-1" id="3Deig92EBqLAMkpL4zrJ">
    <mxGraphModel dx="4801" dy="3335" grid="1" gridSize="10" guides="1" tooltips="1" connect="1" arrows="1" fold="1" page="1" pageScale="1" pageWidth="827" pageHeight="1169" background="#FFFFFF" math="0" shadow="1">
      <root>
        <mxCell id="0" />
        <mxCell id="1" parent="0" />
        <mxCell id="WYVrjqTcu7dz_fImMJw4-138" value="" style="rounded=0;whiteSpace=wrap;html=1;" vertex="1" parent="1">
          <mxGeometry x="-820" y="-1160" width="2740" height="1510" as="geometry" />
        </mxCell>
        <mxCell id="WYVrjqTcu7dz_fImMJw4-98" value="&lt;font style=&quot;font-size: 18px;&quot;&gt;Kubernetes Cluster&lt;br&gt;&lt;/font&gt;" style="rounded=0;whiteSpace=wrap;html=1;verticalAlign=top;align=left;spacingLeft=10;fontStyle=1;fillColor=#1ba1e2;fontColor=#ffffff;strokeColor=#006EAF;" vertex="1" parent="1">
          <mxGeometry x="-780" y="-980" width="2640" height="1270" as="geometry" />
        </mxCell>
        <mxCell id="WYVrjqTcu7dz_fImMJw4-99" value="&lt;font style=&quot;font-size: 18px;&quot;&gt;Kubernetes Cluster - Worker node&lt;/font&gt;" style="rounded=0;whiteSpace=wrap;html=1;verticalAlign=top;align=left;spacingLeft=10;fontStyle=1;fillColor=#d0cee2;strokeColor=#56517e;" vertex="1" parent="1">
          <mxGeometry x="-740" y="-890" width="2560" height="1140" as="geometry" />
        </mxCell>
        <mxCell id="WYVrjqTcu7dz_fImMJw4-101" value="&lt;font style=&quot;font-size: 18px;&quot;&gt;namespace - default&lt;/font&gt;" style="rounded=1;whiteSpace=wrap;html=1;verticalAlign=top;align=left;spacingLeft=100;fontStyle=1;fillColor=#dae8fc;strokeColor=#6c8ebf;dashed=1;dashPattern=8 8;glass=0;shadow=0;strokeWidth=1;" vertex="1" parent="1">
          <mxGeometry x="-592" y="-815" width="2310" height="745" as="geometry" />
        </mxCell>
        <mxCell id="WYVrjqTcu7dz_fImMJw4-30" style="edgeStyle=orthogonalEdgeStyle;rounded=0;orthogonalLoop=1;jettySize=auto;html=1;" edge="1" parent="1" target="WYVrjqTcu7dz_fImMJw4-3">
          <mxGeometry relative="1" as="geometry">
            <mxPoint x="777" y="-429" as="sourcePoint" />
          </mxGeometry>
        </mxCell>
        <mxCell id="WYVrjqTcu7dz_fImMJw4-91" value="" style="group" vertex="1" connectable="0" parent="1">
          <mxGeometry x="610" y="-530" width="400" height="430" as="geometry" />
        </mxCell>
        <mxCell id="WYVrjqTcu7dz_fImMJw4-81" value="&lt;b&gt;&lt;font color=&quot;#c9c9c9&quot;&gt;deploy/postgres/postgres-deployment.yml&lt;/font&gt;&lt;/b&gt;" style="shape=note;whiteSpace=wrap;html=1;backgroundOutline=1;darkOpacity=0.05;verticalAlign=top;align=left;spacingLeft=10;fontSize=17;fillColor=#f5f5f5;fontColor=#333333;strokeColor=none;" vertex="1" parent="WYVrjqTcu7dz_fImMJw4-91">
          <mxGeometry x="-30" width="400" height="350" as="geometry" />
        </mxCell>
        <mxCell id="WYVrjqTcu7dz_fImMJw4-103" style="edgeStyle=orthogonalEdgeStyle;rounded=0;orthogonalLoop=1;jettySize=auto;html=1;exitX=0.5;exitY=1;exitDx=0;exitDy=0;" edge="1" parent="WYVrjqTcu7dz_fImMJw4-91" source="WYVrjqTcu7dz_fImMJw4-29" target="WYVrjqTcu7dz_fImMJw4-3">
          <mxGeometry relative="1" as="geometry" />
        </mxCell>
        <mxCell id="WYVrjqTcu7dz_fImMJw4-29" value="&lt;b&gt;ReplicaSet&lt;/b&gt;&lt;br&gt;replicas: 1" style="rounded=1;whiteSpace=wrap;html=1;arcSize=0;fillColor=#ffcc99;strokeColor=#36393d;" vertex="1" parent="WYVrjqTcu7dz_fImMJw4-91">
          <mxGeometry x="107" y="41" width="120" height="60" as="geometry" />
        </mxCell>
        <mxCell id="WYVrjqTcu7dz_fImMJw4-74" value="" style="group" vertex="1" connectable="0" parent="WYVrjqTcu7dz_fImMJw4-91">
          <mxGeometry x="37" y="185" width="363" height="245" as="geometry" />
        </mxCell>
        <mxCell id="WYVrjqTcu7dz_fImMJw4-3" value="&lt;b&gt;POD - DB - postgres&lt;/b&gt;" style="rounded=1;whiteSpace=wrap;html=1;horizontal=1;verticalAlign=top;align=center;labelPosition=center;verticalLabelPosition=middle;fillColor=#b1ddf0;strokeColor=#10739e;" vertex="1" parent="WYVrjqTcu7dz_fImMJw4-74">
          <mxGeometry width="260" height="140" as="geometry" />
        </mxCell>
        <mxCell id="WYVrjqTcu7dz_fImMJw4-4" value="&lt;b&gt;Container - DB&lt;br&gt;postgres:latest&lt;/b&gt;" style="rounded=0;whiteSpace=wrap;html=1;fillColor=#ffcccc;strokeColor=#36393d;" vertex="1" parent="WYVrjqTcu7dz_fImMJw4-74">
          <mxGeometry x="29.358387096774095" y="41.17176470588231" width="201.29032258064518" height="57.647058823529406" as="geometry" />
        </mxCell>
        <mxCell id="WYVrjqTcu7dz_fImMJw4-33" value="" style="shape=cylinder3;whiteSpace=wrap;html=1;boundedLbl=1;backgroundOutline=1;size=15;fillColor=#ffcccc;strokeColor=#36393d;" vertex="1" parent="WYVrjqTcu7dz_fImMJw4-74">
          <mxGeometry x="181.6500000000001" y="44.81999999999999" width="44.35" height="51.18" as="geometry" />
        </mxCell>
        <mxCell id="WYVrjqTcu7dz_fImMJw4-114" value="" style="aspect=fixed;sketch=0;html=1;dashed=0;whitespace=wrap;fillColor=#2875E2;strokeColor=#ffffff;points=[[0.005,0.63,0],[0.1,0.2,0],[0.9,0.2,0],[0.5,0,0],[0.995,0.63,0],[0.72,0.99,0],[0.5,1,0],[0.28,0.99,0]];shape=mxgraph.kubernetes.icon2;kubernetesLabel=1;prIcon=pod" vertex="1" parent="WYVrjqTcu7dz_fImMJw4-74">
          <mxGeometry x="13" width="41.67" height="40" as="geometry" />
        </mxCell>
        <mxCell id="WYVrjqTcu7dz_fImMJw4-123" value="" style="aspect=fixed;sketch=0;html=1;dashed=0;whitespace=wrap;fillColor=#2875E2;strokeColor=#ffffff;points=[[0.005,0.63,0],[0.1,0.2,0],[0.9,0.2,0],[0.5,0,0],[0.995,0.63,0],[0.72,0.99,0],[0.5,1,0],[0.28,0.99,0]];shape=mxgraph.kubernetes.icon2;kubernetesLabel=1;prIcon=rs" vertex="1" parent="WYVrjqTcu7dz_fImMJw4-91">
          <mxGeometry x="107" y="41" width="31.25" height="30" as="geometry" />
        </mxCell>
        <mxCell id="WYVrjqTcu7dz_fImMJw4-92" value="" style="group" vertex="1" connectable="0" parent="1">
          <mxGeometry x="190" y="-350" width="350" height="120" as="geometry" />
        </mxCell>
        <mxCell id="WYVrjqTcu7dz_fImMJw4-84" value="&lt;b&gt;&lt;font color=&quot;#c9c9c9&quot;&gt;deploy/postgres/postgres-service.yml&lt;/font&gt;&lt;/b&gt;" style="shape=note;whiteSpace=wrap;html=1;backgroundOutline=1;darkOpacity=0.05;verticalAlign=top;align=left;spacingLeft=10;fontSize=17;fillColor=#f5f5f5;fontColor=#333333;strokeColor=none;" vertex="1" parent="WYVrjqTcu7dz_fImMJw4-92">
          <mxGeometry x="-20" width="370" height="120" as="geometry" />
        </mxCell>
        <mxCell id="WYVrjqTcu7dz_fImMJw4-20" value="&lt;b&gt;Service - ClusterIP&lt;/b&gt;&lt;br&gt;svc-postgres&lt;br&gt;&lt;b&gt;port&lt;/b&gt;: 5432:5432" style="rounded=1;whiteSpace=wrap;html=1;arcSize=0;fillColor=#ffcc99;strokeColor=#36393d;" vertex="1" parent="WYVrjqTcu7dz_fImMJw4-92">
          <mxGeometry x="60" y="45" width="210" height="60" as="geometry" />
        </mxCell>
        <mxCell id="WYVrjqTcu7dz_fImMJw4-122" value="" style="aspect=fixed;sketch=0;html=1;dashed=0;whitespace=wrap;fillColor=#2875E2;strokeColor=#ffffff;points=[[0.005,0.63,0],[0.1,0.2,0],[0.9,0.2,0],[0.5,0,0],[0.995,0.63,0],[0.72,0.99,0],[0.5,1,0],[0.28,0.99,0]];shape=mxgraph.kubernetes.icon2;prIcon=svc" vertex="1" parent="WYVrjqTcu7dz_fImMJw4-92">
          <mxGeometry x="70" y="45" width="31.25" height="30" as="geometry" />
        </mxCell>
        <mxCell id="WYVrjqTcu7dz_fImMJw4-93" value="" style="group" vertex="1" connectable="0" parent="1">
          <mxGeometry x="1000" y="-500" width="620" height="270" as="geometry" />
        </mxCell>
        <mxCell id="WYVrjqTcu7dz_fImMJw4-83" value="&lt;b&gt;&lt;font color=&quot;#c9c9c9&quot;&gt;deploy/postgres/postgres-pvc.yml&lt;/font&gt;&lt;/b&gt;" style="shape=note;whiteSpace=wrap;html=1;backgroundOutline=1;darkOpacity=0.05;verticalAlign=bottom;align=left;spacingLeft=10;fontSize=17;fillColor=#f5f5f5;fontColor=#333333;strokeColor=none;" vertex="1" parent="WYVrjqTcu7dz_fImMJw4-93">
          <mxGeometry width="620" height="270" as="geometry" />
        </mxCell>
        <mxCell id="WYVrjqTcu7dz_fImMJw4-22" value="" style="group" vertex="1" connectable="0" parent="WYVrjqTcu7dz_fImMJw4-93">
          <mxGeometry x="70" y="25" width="550" height="160" as="geometry" />
        </mxCell>
        <mxCell id="WYVrjqTcu7dz_fImMJw4-16" value="&lt;b&gt;PVC&lt;/b&gt;&lt;br&gt;pvc-postgres-data" style="rounded=1;whiteSpace=wrap;html=1;arcSize=0;fillColor=#d5e8d4;strokeColor=#82b366;" vertex="1" parent="WYVrjqTcu7dz_fImMJw4-22">
          <mxGeometry y="70" width="160" height="90" as="geometry" />
        </mxCell>
        <mxCell id="WYVrjqTcu7dz_fImMJw4-18" value="&lt;b&gt;resources&lt;/b&gt;.requests.storage: 1Gi&lt;br&gt;&lt;b&gt;accessModes&lt;/b&gt;:&amp;nbsp;ReadWriteOnce&lt;br&gt;&lt;b&gt;storageClassName&lt;/b&gt;: postgres-data" style="rounded=0;whiteSpace=wrap;html=1;align=left;labelPosition=center;verticalLabelPosition=middle;verticalAlign=middle;spacingLeft=10;fillColor=#bac8d3;strokeColor=#23445d;" vertex="1" parent="WYVrjqTcu7dz_fImMJw4-22">
          <mxGeometry x="140" width="370" height="60" as="geometry" />
        </mxCell>
        <mxCell id="WYVrjqTcu7dz_fImMJw4-19" style="edgeStyle=orthogonalEdgeStyle;rounded=0;orthogonalLoop=1;jettySize=auto;html=1;entryX=0.482;entryY=1.042;entryDx=0;entryDy=0;entryPerimeter=0;curved=1;exitX=1;exitY=0.5;exitDx=0;exitDy=0;" edge="1" parent="WYVrjqTcu7dz_fImMJw4-22" source="WYVrjqTcu7dz_fImMJw4-16" target="WYVrjqTcu7dz_fImMJw4-18">
          <mxGeometry relative="1" as="geometry" />
        </mxCell>
        <mxCell id="WYVrjqTcu7dz_fImMJw4-112" value="" style="aspect=fixed;sketch=0;html=1;dashed=0;whitespace=wrap;fillColor=#2875E2;strokeColor=#ffffff;points=[[0.005,0.63,0],[0.1,0.2,0],[0.9,0.2,0],[0.5,0,0],[0.995,0.63,0],[0.72,0.99,0],[0.5,1,0],[0.28,0.99,0]];shape=mxgraph.kubernetes.icon2;kubernetesLabel=1;prIcon=pvc" vertex="1" parent="WYVrjqTcu7dz_fImMJw4-22">
          <mxGeometry y="70" width="50" height="48" as="geometry" />
        </mxCell>
        <mxCell id="WYVrjqTcu7dz_fImMJw4-94" value="" style="group" vertex="1" connectable="0" parent="1">
          <mxGeometry x="1000" y="-780" width="671" height="260" as="geometry" />
        </mxCell>
        <mxCell id="WYVrjqTcu7dz_fImMJw4-82" value="&lt;b&gt;&lt;font color=&quot;#c9c9c9&quot;&gt;deploy/postgres/postgres-pv.yml&lt;/font&gt;&lt;/b&gt;" style="shape=note;whiteSpace=wrap;html=1;backgroundOutline=1;darkOpacity=0.05;verticalAlign=top;align=left;spacingLeft=10;fontSize=17;fillColor=#f5f5f5;fontColor=#333333;strokeColor=none;" vertex="1" parent="WYVrjqTcu7dz_fImMJw4-94">
          <mxGeometry width="620" height="260" as="geometry" />
        </mxCell>
        <mxCell id="WYVrjqTcu7dz_fImMJw4-15" value="" style="group" vertex="1" connectable="0" parent="WYVrjqTcu7dz_fImMJw4-94">
          <mxGeometry x="70" y="60" width="601" height="170" as="geometry" />
        </mxCell>
        <mxCell id="WYVrjqTcu7dz_fImMJw4-8" value="&lt;b&gt;PV&lt;/b&gt;&lt;br&gt;pv-postgres-data" style="shape=cube;whiteSpace=wrap;html=1;boundedLbl=1;backgroundOutline=1;darkOpacity=0.05;darkOpacity2=0.1;fillColor=#d5e8d4;strokeColor=#82b366;" vertex="1" parent="WYVrjqTcu7dz_fImMJw4-15">
          <mxGeometry y="70" width="160" height="100" as="geometry" />
        </mxCell>
        <mxCell id="WYVrjqTcu7dz_fImMJw4-12" value="&lt;b&gt;capacity.storage&lt;/b&gt;: 1Gi&lt;br&gt;&lt;b&gt;accessModes&lt;/b&gt;:&amp;nbsp;ReadWriteOnce&lt;br&gt;&lt;b&gt;hostPath&lt;/b&gt;:&amp;nbsp;/tmp/fasfood-fiap-postech/database/data/&lt;br&gt;&lt;b&gt;storageClassName&lt;/b&gt;: postgres-data" style="rounded=0;whiteSpace=wrap;html=1;align=left;labelPosition=center;verticalLabelPosition=middle;verticalAlign=middle;spacingLeft=10;fillColor=#bac8d3;strokeColor=#23445d;" vertex="1" parent="WYVrjqTcu7dz_fImMJw4-15">
          <mxGeometry x="111" y="-10" width="410" height="70" as="geometry" />
        </mxCell>
        <mxCell id="WYVrjqTcu7dz_fImMJw4-14" style="edgeStyle=orthogonalEdgeStyle;rounded=0;orthogonalLoop=1;jettySize=auto;html=1;entryX=0.5;entryY=1;entryDx=0;entryDy=0;curved=1;exitX=0;exitY=0;exitDx=160;exitDy=60;exitPerimeter=0;" edge="1" parent="WYVrjqTcu7dz_fImMJw4-15" source="WYVrjqTcu7dz_fImMJw4-8" target="WYVrjqTcu7dz_fImMJw4-12">
          <mxGeometry relative="1" as="geometry" />
        </mxCell>
        <mxCell id="WYVrjqTcu7dz_fImMJw4-113" value="" style="aspect=fixed;sketch=0;html=1;dashed=0;whitespace=wrap;fillColor=#2875E2;strokeColor=#ffffff;points=[[0.005,0.63,0],[0.1,0.2,0],[0.9,0.2,0],[0.5,0,0],[0.995,0.63,0],[0.72,0.99,0],[0.5,1,0],[0.28,0.99,0]];shape=mxgraph.kubernetes.icon2;kubernetesLabel=1;prIcon=pv" vertex="1" parent="WYVrjqTcu7dz_fImMJw4-15">
          <mxGeometry x="20" y="80" width="50" height="48" as="geometry" />
        </mxCell>
        <mxCell id="WYVrjqTcu7dz_fImMJw4-96" value="" style="group;strokeColor=none;" vertex="1" connectable="0" parent="1">
          <mxGeometry x="-190" y="-380" width="320" height="380" as="geometry" />
        </mxCell>
        <mxCell id="WYVrjqTcu7dz_fImMJw4-87" value="&lt;b&gt;&lt;font color=&quot;#c9c9c9&quot;&gt;deploy/app/app-deployment.yml&lt;/font&gt;&lt;/b&gt;" style="shape=note;whiteSpace=wrap;html=1;backgroundOutline=1;darkOpacity=0.05;verticalAlign=bottom;align=left;spacingLeft=10;fontSize=17;fillColor=#F5F5F5;fontColor=#333333;strokeColor=none;" vertex="1" parent="WYVrjqTcu7dz_fImMJw4-96">
          <mxGeometry x="-190" width="500" height="230" as="geometry" />
        </mxCell>
        <mxCell id="WYVrjqTcu7dz_fImMJw4-39" value="" style="group" vertex="1" connectable="0" parent="WYVrjqTcu7dz_fImMJw4-96">
          <mxGeometry x="20" y="35" width="300" height="345" as="geometry" />
        </mxCell>
        <mxCell id="WYVrjqTcu7dz_fImMJw4-40" value="&lt;b&gt;POD - APP -&amp;nbsp;fastfood-fiap-postech&lt;/b&gt;" style="rounded=1;whiteSpace=wrap;html=1;horizontal=1;verticalAlign=top;align=center;labelPosition=center;verticalLabelPosition=middle;fillColor=#b1ddf0;strokeColor=#10739e;" vertex="1" parent="WYVrjqTcu7dz_fImMJw4-39">
          <mxGeometry width="260" height="140" as="geometry" />
        </mxCell>
        <mxCell id="WYVrjqTcu7dz_fImMJw4-41" value="&lt;b&gt;Container - APP&lt;br&gt;guibaarros/fastfood-fiap-postech:1.0.2&lt;/b&gt;" style="rounded=0;whiteSpace=wrap;html=1;fillColor=#ffcccc;strokeColor=#36393d;" vertex="1" parent="WYVrjqTcu7dz_fImMJw4-39">
          <mxGeometry x="29.35838709677419" y="41.17176470588234" width="201.29032258064518" height="57.647058823529406" as="geometry" />
        </mxCell>
        <mxCell id="WYVrjqTcu7dz_fImMJw4-116" value="" style="aspect=fixed;sketch=0;html=1;dashed=0;whitespace=wrap;fillColor=#2875E2;strokeColor=#ffffff;points=[[0.005,0.63,0],[0.1,0.2,0],[0.9,0.2,0],[0.5,0,0],[0.995,0.63,0],[0.72,0.99,0],[0.5,1,0],[0.28,0.99,0]];shape=mxgraph.kubernetes.icon2;kubernetesLabel=1;prIcon=pod" vertex="1" parent="WYVrjqTcu7dz_fImMJw4-39">
          <mxGeometry x="10" y="98.82" width="41.67" height="40" as="geometry" />
        </mxCell>
        <mxCell id="WYVrjqTcu7dz_fImMJw4-59" style="edgeStyle=orthogonalEdgeStyle;rounded=0;orthogonalLoop=1;jettySize=auto;html=1;" edge="1" parent="1" source="WYVrjqTcu7dz_fImMJw4-55" target="WYVrjqTcu7dz_fImMJw4-40">
          <mxGeometry relative="1" as="geometry" />
        </mxCell>
        <mxCell id="WYVrjqTcu7dz_fImMJw4-52" style="edgeStyle=orthogonalEdgeStyle;rounded=0;orthogonalLoop=1;jettySize=auto;html=1;exitX=1;exitY=0.5;exitDx=0;exitDy=0;entryX=0;entryY=0.5;entryDx=0;entryDy=0;" edge="1" parent="1" source="WYVrjqTcu7dz_fImMJw4-41" target="WYVrjqTcu7dz_fImMJw4-20">
          <mxGeometry relative="1" as="geometry" />
        </mxCell>
        <mxCell id="WYVrjqTcu7dz_fImMJw4-21" style="edgeStyle=orthogonalEdgeStyle;rounded=0;orthogonalLoop=1;jettySize=auto;html=1;" edge="1" parent="1" source="WYVrjqTcu7dz_fImMJw4-20" target="WYVrjqTcu7dz_fImMJw4-3">
          <mxGeometry relative="1" as="geometry" />
        </mxCell>
        <mxCell id="WYVrjqTcu7dz_fImMJw4-80" style="edgeStyle=orthogonalEdgeStyle;rounded=0;orthogonalLoop=1;jettySize=auto;html=1;entryX=0.5;entryY=0;entryDx=0;entryDy=0;" edge="1" parent="1" source="WYVrjqTcu7dz_fImMJw4-77" target="WYVrjqTcu7dz_fImMJw4-20">
          <mxGeometry relative="1" as="geometry" />
        </mxCell>
        <mxCell id="WYVrjqTcu7dz_fImMJw4-24" style="edgeStyle=orthogonalEdgeStyle;rounded=0;orthogonalLoop=1;jettySize=auto;html=1;entryX=0.5;entryY=1;entryDx=0;entryDy=0;" edge="1" parent="1" source="WYVrjqTcu7dz_fImMJw4-3" target="WYVrjqTcu7dz_fImMJw4-16">
          <mxGeometry relative="1" as="geometry" />
        </mxCell>
        <mxCell id="WYVrjqTcu7dz_fImMJw4-23" style="edgeStyle=orthogonalEdgeStyle;rounded=0;orthogonalLoop=1;jettySize=auto;html=1;" edge="1" parent="1" source="WYVrjqTcu7dz_fImMJw4-16" target="WYVrjqTcu7dz_fImMJw4-8">
          <mxGeometry relative="1" as="geometry" />
        </mxCell>
        <mxCell id="WYVrjqTcu7dz_fImMJw4-65" value="&lt;b&gt;ReplicaSet&lt;/b&gt;&lt;br&gt;replicas: 1" style="rounded=1;whiteSpace=wrap;html=1;arcSize=0;fillColor=#ffcc99;strokeColor=#36393d;" vertex="1" parent="1">
          <mxGeometry x="-350" y="-305" width="120" height="60" as="geometry" />
        </mxCell>
        <mxCell id="WYVrjqTcu7dz_fImMJw4-66" style="edgeStyle=orthogonalEdgeStyle;rounded=0;orthogonalLoop=1;jettySize=auto;html=1;" edge="1" parent="1" source="WYVrjqTcu7dz_fImMJw4-65" target="WYVrjqTcu7dz_fImMJw4-40">
          <mxGeometry relative="1" as="geometry" />
        </mxCell>
        <mxCell id="WYVrjqTcu7dz_fImMJw4-102" value="&lt;font style=&quot;font-size: 18px;&quot;&gt;namespace - kube-system&lt;/font&gt;" style="rounded=1;whiteSpace=wrap;html=1;verticalAlign=bottom;align=left;fontStyle=1;spacingLeft=25;fillColor=#fff2cc;strokeColor=#d6b656;dashed=1;" vertex="1" parent="1">
          <mxGeometry x="-577" y="-20" width="392" height="235" as="geometry" />
        </mxCell>
        <mxCell id="WYVrjqTcu7dz_fImMJw4-104" value="&lt;b&gt;&lt;font color=&quot;#c9c9c9&quot;&gt;deploy/metrics/metrics.yml&lt;/font&gt;&lt;/b&gt;" style="shape=note;whiteSpace=wrap;html=1;backgroundOutline=1;darkOpacity=0.05;verticalAlign=bottom;align=left;spacingLeft=10;fontSize=17;fillColor=#F5F5F5;fontColor=#333333;strokeColor=none;" vertex="1" parent="1">
          <mxGeometry x="-525" y="31.25" width="290" height="132.5" as="geometry" />
        </mxCell>
        <mxCell id="WYVrjqTcu7dz_fImMJw4-70" value="" style="group;" vertex="1" connectable="0" parent="1">
          <mxGeometry x="-485" y="58.75" width="210" height="65" as="geometry" />
        </mxCell>
        <mxCell id="WYVrjqTcu7dz_fImMJw4-71" value="&lt;b&gt;POD - metrics-server&lt;/b&gt;" style="rounded=1;whiteSpace=wrap;html=1;horizontal=1;verticalAlign=middle;align=center;labelPosition=center;verticalLabelPosition=middle;fillColor=#fad7ac;strokeColor=#b46504;" vertex="1" parent="WYVrjqTcu7dz_fImMJw4-70">
          <mxGeometry width="210" height="65" as="geometry" />
        </mxCell>
        <mxCell id="WYVrjqTcu7dz_fImMJw4-117" value="" style="aspect=fixed;sketch=0;html=1;dashed=0;whitespace=wrap;fillColor=#2875E2;strokeColor=#ffffff;points=[[0.005,0.63,0],[0.1,0.2,0],[0.9,0.2,0],[0.5,0,0],[0.995,0.63,0],[0.72,0.99,0],[0.5,1,0],[0.28,0.99,0]];shape=mxgraph.kubernetes.icon2;kubernetesLabel=1;prIcon=pod" vertex="1" parent="WYVrjqTcu7dz_fImMJw4-70">
          <mxGeometry width="41.67" height="40" as="geometry" />
        </mxCell>
        <mxCell id="WYVrjqTcu7dz_fImMJw4-95" value="" style="group;fontColor=#8c8c8c;" vertex="1" connectable="0" parent="1">
          <mxGeometry x="-185" y="-800" width="290" height="170" as="geometry" />
        </mxCell>
        <mxCell id="WYVrjqTcu7dz_fImMJw4-86" value="&lt;b&gt;&lt;font color=&quot;#c9c9c9&quot;&gt;deploy/app/app-service.yml&lt;/font&gt;&lt;/b&gt;" style="shape=note;whiteSpace=wrap;html=1;backgroundOutline=1;darkOpacity=0.05;verticalAlign=top;align=left;spacingLeft=10;fontSize=17;fillColor=#F5F5F5;fontColor=#333333;strokeColor=none;" vertex="1" parent="WYVrjqTcu7dz_fImMJw4-95">
          <mxGeometry width="290" height="170" as="geometry" />
        </mxCell>
        <mxCell id="WYVrjqTcu7dz_fImMJw4-55" value="&lt;b&gt;Service - NodePort&lt;/b&gt;&lt;br&gt;svc-fastfood-fiap-postech&lt;br&gt;&lt;b&gt;port&lt;/b&gt;: 8085:32001" style="rounded=1;whiteSpace=wrap;html=1;arcSize=0;fillColor=#ffcc99;strokeColor=#36393d;" vertex="1" parent="WYVrjqTcu7dz_fImMJw4-95">
          <mxGeometry x="60" y="40" width="170" height="101" as="geometry" />
        </mxCell>
        <mxCell id="WYVrjqTcu7dz_fImMJw4-120" value="" style="aspect=fixed;sketch=0;html=1;dashed=0;whitespace=wrap;fillColor=#2875E2;strokeColor=#ffffff;points=[[0.005,0.63,0],[0.1,0.2,0],[0.9,0.2,0],[0.5,0,0],[0.995,0.63,0],[0.72,0.99,0],[0.5,1,0],[0.28,0.99,0]];shape=mxgraph.kubernetes.icon2;prIcon=svc" vertex="1" parent="WYVrjqTcu7dz_fImMJw4-95">
          <mxGeometry x="60" y="40" width="31.25" height="30" as="geometry" />
        </mxCell>
        <mxCell id="WYVrjqTcu7dz_fImMJw4-97" value="" style="group" vertex="1" connectable="0" parent="1">
          <mxGeometry x="-541" y="-650" width="290" height="190" as="geometry" />
        </mxCell>
        <mxCell id="WYVrjqTcu7dz_fImMJw4-90" value="&lt;b&gt;&lt;font color=&quot;#c9c9c9&quot;&gt;deploy/app/app-hpa.yml&lt;/font&gt;&lt;/b&gt;" style="shape=note;whiteSpace=wrap;html=1;backgroundOutline=1;darkOpacity=0.05;verticalAlign=bottom;align=left;spacingLeft=10;fontSize=17;fillColor=#F5F5F5;fontColor=#333333;strokeColor=none;" vertex="1" parent="WYVrjqTcu7dz_fImMJw4-97">
          <mxGeometry width="290" height="190" as="geometry" />
        </mxCell>
        <mxCell id="WYVrjqTcu7dz_fImMJw4-67" value="&lt;b&gt;HPA&lt;/b&gt;&lt;br&gt;minReplicas: 1&lt;br&gt;maxReplicas: 4&lt;br&gt;resource.name: cpu&lt;br&gt;resource.target.type: Utilizatoin&lt;br&gt;resource.target.averageUtilization: 40" style="rounded=1;whiteSpace=wrap;html=1;arcSize=0;fillColor=#ffcc99;strokeColor=#36393d;" vertex="1" parent="WYVrjqTcu7dz_fImMJw4-97">
          <mxGeometry x="10" y="35" width="270" height="120" as="geometry" />
        </mxCell>
        <mxCell id="WYVrjqTcu7dz_fImMJw4-125" value="" style="aspect=fixed;sketch=0;html=1;dashed=0;whitespace=wrap;fillColor=#2875E2;strokeColor=#ffffff;points=[[0.005,0.63,0],[0.1,0.2,0],[0.9,0.2,0],[0.5,0,0],[0.995,0.63,0],[0.72,0.99,0],[0.5,1,0],[0.28,0.99,0]];shape=mxgraph.kubernetes.icon2;kubernetesLabel=1;prIcon=hpa" vertex="1" parent="WYVrjqTcu7dz_fImMJw4-97">
          <mxGeometry x="10" y="35" width="50" height="48" as="geometry" />
        </mxCell>
        <mxCell id="WYVrjqTcu7dz_fImMJw4-105" style="edgeStyle=orthogonalEdgeStyle;rounded=0;orthogonalLoop=1;jettySize=auto;html=1;exitX=0.25;exitY=1;exitDx=0;exitDy=0;entryX=0.25;entryY=0;entryDx=0;entryDy=0;" edge="1" parent="1" source="WYVrjqTcu7dz_fImMJw4-67" target="WYVrjqTcu7dz_fImMJw4-71">
          <mxGeometry relative="1" as="geometry" />
        </mxCell>
        <mxCell id="WYVrjqTcu7dz_fImMJw4-106" value="&lt;b&gt;&lt;font color=&quot;#c9c9c9&quot;&gt;deploy/pgadmin/pgadmin-deployment.yml&lt;/font&gt;&lt;/b&gt;" style="shape=note;whiteSpace=wrap;html=1;backgroundOutline=1;darkOpacity=0.05;verticalAlign=top;align=left;spacingLeft=10;fontSize=17;fillColor=#f5f5f5;fontColor=#333333;strokeColor=none;" vertex="1" parent="1">
          <mxGeometry x="154" y="-590" width="400" height="210" as="geometry" />
        </mxCell>
        <mxCell id="WYVrjqTcu7dz_fImMJw4-75" value="" style="group" vertex="1" connectable="0" parent="1">
          <mxGeometry x="224" y="-540" width="260" height="140" as="geometry" />
        </mxCell>
        <mxCell id="WYVrjqTcu7dz_fImMJw4-76" value="&lt;b&gt;POD - pgAdmin&lt;/b&gt;" style="rounded=1;whiteSpace=wrap;html=1;horizontal=1;verticalAlign=top;align=center;labelPosition=center;verticalLabelPosition=middle;fillColor=#b1ddf0;strokeColor=#10739e;" vertex="1" parent="WYVrjqTcu7dz_fImMJw4-75">
          <mxGeometry width="260" height="140" as="geometry" />
        </mxCell>
        <mxCell id="WYVrjqTcu7dz_fImMJw4-77" value="&lt;b&gt;Container&lt;br&gt;dpage/pgadmin4:latest&lt;/b&gt;" style="rounded=0;whiteSpace=wrap;html=1;fillColor=#ffcccc;strokeColor=#36393d;" vertex="1" parent="WYVrjqTcu7dz_fImMJw4-75">
          <mxGeometry x="29.358387096774095" y="41.17176470588231" width="201.29032258064518" height="57.647058823529406" as="geometry" />
        </mxCell>
        <mxCell id="WYVrjqTcu7dz_fImMJw4-115" value="" style="aspect=fixed;sketch=0;html=1;dashed=0;whitespace=wrap;fillColor=#2875E2;strokeColor=#ffffff;points=[[0.005,0.63,0],[0.1,0.2,0],[0.9,0.2,0],[0.5,0,0],[0.995,0.63,0],[0.72,0.99,0],[0.5,1,0],[0.28,0.99,0]];shape=mxgraph.kubernetes.icon2;kubernetesLabel=1;prIcon=pod" vertex="1" parent="WYVrjqTcu7dz_fImMJw4-75">
          <mxGeometry x="16" width="41.67" height="40" as="geometry" />
        </mxCell>
        <mxCell id="WYVrjqTcu7dz_fImMJw4-107" value="" style="group;fontColor=#8c8c8c;" vertex="1" connectable="0" parent="1">
          <mxGeometry x="209" y="-800" width="290" height="170" as="geometry" />
        </mxCell>
        <mxCell id="WYVrjqTcu7dz_fImMJw4-108" value="&lt;b&gt;&lt;font color=&quot;#c9c9c9&quot;&gt;deploy/app/app-service.yml&lt;/font&gt;&lt;/b&gt;" style="shape=note;whiteSpace=wrap;html=1;backgroundOutline=1;darkOpacity=0.05;verticalAlign=top;align=left;spacingLeft=10;fontSize=17;fillColor=#F5F5F5;fontColor=#333333;strokeColor=none;" vertex="1" parent="WYVrjqTcu7dz_fImMJw4-107">
          <mxGeometry width="290" height="170" as="geometry" />
        </mxCell>
        <mxCell id="WYVrjqTcu7dz_fImMJw4-109" value="&lt;b&gt;Service - NodePort&lt;/b&gt;&lt;br&gt;svc-pgadmin&lt;br&gt;&lt;b&gt;port&lt;/b&gt;: 80:32000" style="rounded=1;whiteSpace=wrap;html=1;arcSize=0;fillColor=#ffcc99;strokeColor=#36393d;" vertex="1" parent="WYVrjqTcu7dz_fImMJw4-107">
          <mxGeometry x="60" y="40" width="170" height="101" as="geometry" />
        </mxCell>
        <mxCell id="WYVrjqTcu7dz_fImMJw4-121" value="" style="aspect=fixed;sketch=0;html=1;dashed=0;whitespace=wrap;fillColor=#2875E2;strokeColor=#ffffff;points=[[0.005,0.63,0],[0.1,0.2,0],[0.9,0.2,0],[0.5,0,0],[0.995,0.63,0],[0.72,0.99,0],[0.5,1,0],[0.28,0.99,0]];shape=mxgraph.kubernetes.icon2;prIcon=svc" vertex="1" parent="WYVrjqTcu7dz_fImMJw4-107">
          <mxGeometry x="60" y="40" width="31.25" height="30" as="geometry" />
        </mxCell>
        <mxCell id="WYVrjqTcu7dz_fImMJw4-110" style="edgeStyle=orthogonalEdgeStyle;rounded=0;orthogonalLoop=1;jettySize=auto;html=1;" edge="1" parent="1" source="WYVrjqTcu7dz_fImMJw4-109" target="WYVrjqTcu7dz_fImMJw4-76">
          <mxGeometry relative="1" as="geometry" />
        </mxCell>
        <mxCell id="WYVrjqTcu7dz_fImMJw4-124" value="" style="aspect=fixed;sketch=0;html=1;dashed=0;whitespace=wrap;fillColor=#2875E2;strokeColor=#ffffff;points=[[0.005,0.63,0],[0.1,0.2,0],[0.9,0.2,0],[0.5,0,0],[0.995,0.63,0],[0.72,0.99,0],[0.5,1,0],[0.28,0.99,0]];shape=mxgraph.kubernetes.icon2;kubernetesLabel=1;prIcon=rs" vertex="1" parent="1">
          <mxGeometry x="-350" y="-305" width="31.25" height="30" as="geometry" />
        </mxCell>
        <mxCell id="WYVrjqTcu7dz_fImMJw4-127" style="edgeStyle=orthogonalEdgeStyle;rounded=0;orthogonalLoop=1;jettySize=auto;html=1;" edge="1" parent="1" source="WYVrjqTcu7dz_fImMJw4-126" target="WYVrjqTcu7dz_fImMJw4-109">
          <mxGeometry relative="1" as="geometry" />
        </mxCell>
        <mxCell id="WYVrjqTcu7dz_fImMJw4-126" value="" style="aspect=fixed;sketch=0;html=1;dashed=0;whitespace=wrap;fillColor=#2875E2;strokeColor=#ffffff;points=[[0.005,0.63,0],[0.1,0.2,0],[0.9,0.2,0],[0.5,0,0],[0.995,0.63,0],[0.72,0.99,0],[0.5,1,0],[0.28,0.99,0]];shape=mxgraph.kubernetes.icon2;kubernetesLabel=1;prIcon=user" vertex="1" parent="1">
          <mxGeometry x="309.5" y="-1130" width="89" height="85.44" as="geometry" />
        </mxCell>
        <mxCell id="WYVrjqTcu7dz_fImMJw4-131" value="" style="aspect=fixed;sketch=0;html=1;dashed=0;whitespace=wrap;fillColor=#2875E2;strokeColor=#ffffff;points=[[0.005,0.63,0],[0.1,0.2,0],[0.9,0.2,0],[0.5,0,0],[0.995,0.63,0],[0.72,0.99,0],[0.5,1,0],[0.28,0.99,0]];shape=mxgraph.kubernetes.icon2;kubernetesLabel=1;prIcon=ns" vertex="1" parent="1">
          <mxGeometry x="-541" y="-810" width="50" height="48" as="geometry" />
        </mxCell>
        <mxCell id="WYVrjqTcu7dz_fImMJw4-132" value="" style="aspect=fixed;sketch=0;html=1;dashed=0;whitespace=wrap;fillColor=#2875E2;strokeColor=#ffffff;points=[[0.005,0.63,0],[0.1,0.2,0],[0.9,0.2,0],[0.5,0,0],[0.995,0.63,0],[0.72,0.99,0],[0.5,1,0],[0.28,0.99,0]];shape=mxgraph.kubernetes.icon2;kubernetesLabel=1;prIcon=ns" vertex="1" parent="1">
          <mxGeometry x="-575" y="-16.75" width="50" height="48" as="geometry" />
        </mxCell>
        <mxCell id="WYVrjqTcu7dz_fImMJw4-137" style="edgeStyle=orthogonalEdgeStyle;rounded=0;orthogonalLoop=1;jettySize=auto;html=1;" edge="1" parent="1" source="WYVrjqTcu7dz_fImMJw4-134" target="WYVrjqTcu7dz_fImMJw4-55">
          <mxGeometry relative="1" as="geometry" />
        </mxCell>
        <mxCell id="WYVrjqTcu7dz_fImMJw4-134" value="FRONT-END" style="ellipse;shape=cloud;whiteSpace=wrap;html=1;" vertex="1" parent="1">
          <mxGeometry x="-100" y="-1127.28" width="120" height="80" as="geometry" />
        </mxCell>
        <mxCell id="WYVrjqTcu7dz_fImMJw4-136" style="edgeStyle=orthogonalEdgeStyle;rounded=0;orthogonalLoop=1;jettySize=auto;html=1;" edge="1" parent="1" target="WYVrjqTcu7dz_fImMJw4-134">
          <mxGeometry relative="1" as="geometry">
            <mxPoint x="-221" y="-1087" as="sourcePoint" />
          </mxGeometry>
        </mxCell>
        <mxCell id="WYVrjqTcu7dz_fImMJw4-135" value="UsuÃ¡rio" style="shape=umlActor;verticalLabelPosition=bottom;verticalAlign=top;html=1;outlineConnect=0;" vertex="1" parent="1">
          <mxGeometry x="-251" y="-1117.28" width="30" height="60" as="geometry" />
        </mxCell>
        <mxCell id="WYVrjqTcu7dz_fImMJw4-68" style="edgeStyle=orthogonalEdgeStyle;rounded=0;orthogonalLoop=1;jettySize=auto;html=1;" edge="1" parent="1" source="WYVrjqTcu7dz_fImMJw4-67" target="WYVrjqTcu7dz_fImMJw4-65">
          <mxGeometry relative="1" as="geometry" />
        </mxCell>
      </root>
    </mxGraphModel>
  </diagram>
</mxfile>
